<svg xmlns="http://www.w3.org/2000/svg" width="394" height="618" viewBox="0 0 394 618" font-family="Segoe UI, Helvetica, Arial, sans-serif" font-size="13">
<defs><marker id="arrow" viewBox="0 0 10 10" refX="9" refY="5" markerWidth="7" markerHeight="7" orient="auto-start-reverse"><path d="M 0 1 L 9 5 L 0 9 z" fill="#546e7a"/></marker></defs>
<rect width="100%" height="100%" fill="#fafafa"/>
<text x="197" y="28" text-anchor="middle" font-size="16" font-weight="bold" fill="#263238">workflow compra</text>
<path d="M 197 102 C 197 136, 197 152, 197 183" fill="none" stroke="#546e7a" stroke-width="1.6" marker-end="url(#arrow)"/>
<path d="M 197 222 C 197 256, 129 272, 129 303" fill="none" stroke="#546e7a" stroke-width="1.6" marker-end="url(#arrow)"/>
<rect x="125" y="253" width="76" height="18" rx="4" fill="#ffffff" stroke="#546e7a" stroke-width="0.6" opacity="0.95"/>
<text x="163" y="264" text-anchor="middle" font-size="12" font-style="italic" fill="#37474f">if stock_ok</text>
<path d="M 197 222 C 197 256, 283 272, 283 303" fill="none" stroke="#546e7a" stroke-width="1.6" marker-end="url(#arrow)"/>
<rect x="183" y="253" width="113" height="18" rx="4" fill="#ffffff" stroke="#546e7a" stroke-width="0.6" opacity="0.95"/>
<text x="240" y="264" text-anchor="middle" font-size="12" font-style="italic" fill="#37474f">if (not stock_ok)</text>
<path d="M 129 342 C 129 376, 197 392, 197 423" fill="none" stroke="#546e7a" stroke-width="1.6" marker-end="url(#arrow)"/>
<path d="M 283 342 C 283 424, 197 464, 197 543" fill="none" stroke="#546e7a" stroke-width="1.6" marker-end="url(#arrow)"/>
<path d="M 197 462 C 197 496, 197 512, 197 543" fill="none" stroke="#546e7a" stroke-width="1.6" marker-end="url(#arrow)"/>
<rect x="161" y="66" width="72" height="36" rx="18.0" fill="#e8f5e9" stroke="#2e7d32" stroke-width="1.8"/>
<text x="197" y="88" text-anchor="middle" font-weight="600" fill="#1b5e20">start</text>
<rect x="156" y="186" width="83" height="36" rx="8" fill="#e3f2fd" stroke="#1565c0" stroke-width="1.8"/>
<text x="197" y="208" text-anchor="middle" font-weight="600" fill="#0d47a1">validar</text>
<rect x="66" y="306" width="126" height="36" rx="8" fill="#e3f2fd" stroke="#1565c0" stroke-width="1.8"/>
<text x="129" y="328" text-anchor="middle" font-weight="600" fill="#0d47a1">procesar_pago</text>
<rect x="238" y="306" width="90" height="36" rx="8" fill="#e3f2fd" stroke="#1565c0" stroke-width="1.8"/>
<text x="283" y="328" text-anchor="middle" font-weight="600" fill="#0d47a1">cancelar</text>
<rect x="138" y="426" width="119" height="36" rx="8" fill="#e3f2fd" stroke="#1565c0" stroke-width="1.8"/>
<text x="197" y="448" text-anchor="middle" font-weight="600" fill="#0d47a1">enviar_email</text>
<rect x="161" y="546" width="72" height="36" rx="18.0" fill="#ffebee" stroke="#c62828" stroke-width="1.8"/>
<text x="197" y="568" text-anchor="middle" font-weight="600" fill="#b71c1c">end</text>
</svg>
