<svg xmlns="http://www.w3.org/2000/svg" width="358" height="498" viewBox="0 0 358 498" font-family="Segoe UI, Helvetica, Arial, sans-serif" font-size="13">
<defs><marker id="arrow" viewBox="0 0 10 10" refX="9" refY="5" markerWidth="7" markerHeight="7" orient="auto-start-reverse"><path d="M 0 1 L 9 5 L 0 9 z" fill="#546e7a"/></marker></defs>
<rect width="100%" height="100%" fill="#fafafa"/>
<text x="179" y="28" text-anchor="middle" font-size="16" font-weight="bold" fill="#263238">workflow reintentos</text>
<path d="M 179 102 C 179 136, 179 152, 179 183" fill="none" stroke="#546e7a" stroke-width="1.6" marker-end="url(#arrow)"/>
<path d="M 179 222 C 179 256, 114 272, 114 303" fill="none" stroke="#546e7a" stroke-width="1.6" marker-end="url(#arrow)"/>
<rect x="118" y="253" width="58" height="18" rx="4" fill="#ffffff" stroke="#546e7a" stroke-width="0.6" opacity="0.95"/>
<text x="147" y="264" text-anchor="middle" font-size="12" font-style="italic" fill="#37474f">if exito</text>
<path d="M 179 222 C 179 256, 250 272, 250 303" fill="none" stroke="#546e7a" stroke-width="1.6" marker-end="url(#arrow)"/>
<rect x="167" y="253" width="95" height="18" rx="4" fill="#ffffff" stroke="#546e7a" stroke-width="0.6" opacity="0.95"/>
<text x="215" y="264" text-anchor="middle" font-size="12" font-style="italic" fill="#37474f">if (not exito)</text>
<path d="M 292 324 C 340 324, 340 204, 228 204" fill="none" stroke="#546e7a" stroke-width="1.6" marker-end="url(#arrow)"/>
<path d="M 114 342 C 114 376, 179 392, 179 423" fill="none" stroke="#546e7a" stroke-width="1.6" marker-end="url(#arrow)"/>
<rect x="143" y="66" width="72" height="36" rx="18.0" fill="#e8f5e9" stroke="#2e7d32" stroke-width="1.8"/>
<text x="179" y="88" text-anchor="middle" font-weight="600" fill="#1b5e20">start</text>
<rect x="134" y="186" width="90" height="36" rx="8" fill="#e3f2fd" stroke="#1565c0" stroke-width="1.8"/>
<text x="179" y="208" text-anchor="middle" font-weight="600" fill="#0d47a1">intentar</text>
<rect x="66" y="306" width="97" height="36" rx="8" fill="#e3f2fd" stroke="#1565c0" stroke-width="1.8"/>
<text x="114" y="328" text-anchor="middle" font-weight="600" fill="#0d47a1">confirmar</text>
<rect x="209" y="306" width="83" height="36" rx="8" fill="#e3f2fd" stroke="#1565c0" stroke-width="1.8"/>
<text x="250" y="328" text-anchor="middle" font-weight="600" fill="#0d47a1">esperar</text>
<rect x="143" y="426" width="72" height="36" rx="18.0" fill="#ffebee" stroke="#c62828" stroke-width="1.8"/>
<text x="179" y="448" text-anchor="middle" font-weight="600" fill="#b71c1c">end</text>
</svg>
